HIERARCHY
ROOT Hips
{
	OFFSET 0.00000 0.00000 0.00000
	CHANNELS 6 Xposition Yposition Zposition Zrotation Yrotation Xrotation 
	JOINT LHipJoint
	{
		OFFSET 0 0 0
		CHANNELS 3 Zrotation Yrotation Xrotation
		JOINT LeftHip
		{
			OFFSET 1.66553 -1.82942 0.76350
			CHANNELS 3 Zrotation Yrotation Xrotation
			JOINT LeftKnee
			{
				OFFSET 2.41740 -6.64177 0.00000
				CHANNELS 3 Zrotation Yrotation Xrotation
				JOINT LeftAnkle
				{
					OFFSET 2.71614 -7.46254 0.00000
					CHANNELS 3 Zrotation Yrotation Xrotation
					JOINT LeftToe
					{
						OFFSET 0.08005 -0.21993 1.82495
						CHANNELS 3 Zrotation Yrotation Xrotation
						End Site
						{
							OFFSET 0.00000 -0.00000 0.93441
						}
					}
				}
			}
		}
	}
	JOINT RHipJoint
	{
		OFFSET 0 0 0
		CHANNELS 3 Zrotation Yrotation Xrotation
		JOINT RightHip
		{
			OFFSET -1.63725 -1.82942 0.76350
			CHANNELS 3 Zrotation Yrotation Xrotation
			JOINT RightKnee
			{
				OFFSET -2.40538 -6.60872 0.00000
				CHANNELS 3 Zrotation Yrotation Xrotation
				JOINT RightAnkle
				{
					OFFSET -2.73312 -7.50919 0.00000
					CHANNELS 3 Zrotation Yrotation Xrotation
					JOINT RightToe
					{
						OFFSET -0.15567 -0.42769 1.93504
						CHANNELS 3 Zrotation Yrotation Xrotation
						End Site
						{
							OFFSET -0.00000 -0.00000 1.00100
						}
					}
				}
			}
		}
	}
	JOINT lowerback
	{
		OFFSET 0 0 0
		CHANNELS 3 Zrotation Yrotation Xrotation
		JOINT Chest
		{
			OFFSET 0.00326 2.30118 -0.13017
			CHANNELS 3 Zrotation Yrotation Xrotation
			JOINT Chest2
			{
				OFFSET 0.02887 2.30677 0.00834
				CHANNELS 3 Zrotation Yrotation Xrotation
				JOINT lowerneck
				{
					OFFSET 0 0 0
					CHANNELS 3 Zrotation Yrotation Xrotation
					JOINT Neck
					{
						OFFSET 0.12946 1.68326 0.00713
						CHANNELS 3 Zrotation Yrotation Xrotation
						JOINT Head
						{
							OFFSET -0.24364 1.67243 -0.16079
							CHANNELS 3 Zrotation Yrotation Xrotation
							End Site
							{
								OFFSET -0.09229 1.70819 -0.06383
							}
						}
					}
				}
				JOINT LeftCollar
				{
					OFFSET 0 0 0
					CHANNELS 3 Zrotation Yrotation Xrotation
					JOINT LeftShoulder
					{
						OFFSET 3.28104 0.69567 -0.00556
CHANNELS 3 Zrotation Xrotation Yrotation
						JOINT LeftElbow
						{
OFFSET 0 -5.707060 -0.000000
CHANNELS 3 Zrotation Xrotation Yrotation
							JOINT LeftWrist
							{
OFFSET 0 -3.332430 0.000000
CHANNELS 3 Zrotation Xrotation Yrotation
								JOINT lhand
								{
									OFFSET 0 0 0
CHANNELS 3 Zrotation Xrotation Yrotation
									JOINT LFingers
									{
OFFSET 0 -0.792690 0.000000
CHANNELS 3 Zrotation Xrotation Yrotation
										End Site
										{
OFFSET 0 -0.639090 0.000000
										}
									}
								}
								JOINT LThumb
								{
OFFSET 0 0.000000 0.000000
CHANNELS 3 Zrotation Xrotation Yrotation
									End Site
									{
OFFSET 0 -0.648840 0.648840
									}
								}
							}
						}
					}
				}
				JOINT RightCollar
				{
					OFFSET 0 0 0
					CHANNELS 3 Zrotation Yrotation Xrotation
					JOINT RightShoulder
					{
						OFFSET -3.40955 0.64424 0.14010
CHANNELS 3 Zrotation Xrotation Yrotation
						JOINT RightElbow
						{
OFFSET 0 -5.881760 -0.000000
CHANNELS 3 Zrotation Xrotation Yrotation
							JOINT RightWrist
							{
OFFSET 0 -3.281560 0.000000
CHANNELS 3 Zrotation Xrotation Yrotation
								JOINT rhand
								{
									OFFSET 0 0 0
CHANNELS 3 Zrotation Xrotation Yrotation
									JOINT RFingers
									{
OFFSET 0 -0.863130 0.000000
CHANNELS 3 Zrotation Xrotation Yrotation
										End Site
										{
OFFSET 0 -0.695870 0.000000
										}
									}
								}
								JOINT RThumb
								{
OFFSET 0 0.000000 0.000000
CHANNELS 3 Zrotation Xrotation Yrotation
									End Site
									{
OFFSET 0 -0.706500 0.706500
									}
								}
							}
						}
					}
				}
			}
		}
	}
}
MOTION
Frames: 8
Frame Time: 0.008333333333333333
12.406982 15.173148 -24.279469 -6.789844 -14.004035 11.542709 0.000000 0.000000 0.000000 7.819537 -1.776261 -28.021577 12.414907 18.560599 67.298064 2.223567 -21.615431 -28.847390 1.572533 -7.912343 -22.448120 0.000000 0.000000 0.000000 -0.489100 8.933982 -48.859266 -8.456260 -16.444728 54.189807 -0.758054 0.306703 -16.353775 -0.897209 6.034918 -16.886249 -0.911019 -2.942109 16.176029 0.610098 -4.178319 -7.952681 2.543255 -1.694566 -18.298303 13.147019 2.557485 4.875884 -14.142447 3.659258 -4.184881 -6.567523 1.999546 -1.505533 0.000000 0.000000 0.000000 97.978275 29.869002 22.080453 16.988951 -26.843120 4.082370 7.286818 -8.216729 -27.929560 0.000000 0.000000 0.000000 -7.125000 0.000000 0.000000 -25.054882 56.287500 7.255052 0.000000 0.000000 0.000000 -91.502866 18.548531 -48.439903 -12.932730 -21.188562 -2.428953 26.641484 41.105521 -21.947846 0.000000 0.000000 0.000000 7.125000 0.000000 0.000000 32.462042 7.772859 33.983633
12.352994 15.119864 -24.296575 -6.683420 -14.129921 12.401964 0.000000 0.000000 0.000000 8.111748 -1.416698 -29.304568 12.613451 18.638097 67.920505 2.215262 -21.666027 -28.820028 1.778334 -8.388199 -23.899670 0.000000 0.000000 0.000000 -0.696885 8.807237 -50.679818 -8.788872 -16.669903 55.357032 -0.760263 -0.181531 -16.546556 -1.493548 7.719960 -21.866743 -0.742447 -2.873399 16.195923 0.350429 -4.086673 -7.938402 2.119256 -1.697323 -18.332104 13.518366 2.575643 4.410100 -14.335461 3.505936 -5.933898 -6.713752 1.906672 -1.943712 0.000000 0.000000 0.000000 97.648318 30.714777 24.540130 17.999695 -28.156622 4.549101 9.818143 -8.212612 -27.733834 0.000000 0.000000 0.000000 -7.125000 0.000000 0.000000 -22.409314 56.622599 6.615054 0.000000 0.000000 0.000000 -91.187168 19.881960 -49.146561 -13.889014 -22.575757 -2.785316 20.255262 34.091893 -20.657635 0.000000 0.000000 0.000000 7.125000 0.000000 0.000000 29.605072 9.783361 28.357301
12.301925 15.043580 -24.404976 -6.497459 -14.652674 12.840570 0.000000 0.000000 0.000000 8.388941 -1.027090 -30.638002 12.969150 18.771021 69.029711 2.164575 -21.825022 -28.609592 1.644812 -8.081001 -22.961742 0.000000 0.000000 0.000000 -1.061746 9.137121 -52.321946 -9.039719 -16.833199 56.227229 -0.718982 -0.320438 -16.142275 -1.666134 8.132070 -23.116436 -1.094882 -2.673553 17.417300 0.328070 -3.902713 -7.481796 2.289295 -1.561444 -18.528503 13.376319 2.426269 5.229173 -14.655883 3.191906 -7.977204 -6.853735 1.792799 -2.717139 0.000000 0.000000 0.000000 94.381462 31.163150 28.373883 18.534958 -28.836762 4.804473 15.508136 -6.014358 -27.501472 0.000000 0.000000 0.000000 -7.125000 0.000000 0.000000 -16.458897 57.594731 5.168309 0.000000 0.000000 0.000000 -89.069614 19.986835 -49.342038 -14.428249 -23.343535 -2.995689 12.112841 24.933519 -16.788372 0.000000 0.000000 0.000000 7.125000 0.000000 0.000000 25.751477 13.808762 21.165856
12.285165 14.976562 -24.565841 -6.298921 -14.927273 12.753249 0.000000 0.000000 0.000000 8.608264 -1.229933 -31.587619 13.354152 18.906336 70.221835 2.159706 -21.732983 -28.554886 1.649245 -8.093758 -22.999255 0.000000 0.000000 0.000000 -1.357112 9.230652 -53.527519 -9.246190 -16.963564 56.937771 -0.694024 0.216861 -15.671307 -1.820424 8.481373 -24.186071 -0.966813 -2.676911 18.602384 -0.012967 -3.891078 -5.846681 1.817024 -1.627064 -17.257697 13.092143 2.392589 4.832969 -13.988928 3.104967 -8.339571 -6.586904 1.719110 -2.787364 0.000000 0.000000 0.000000 89.743682 31.003851 30.875869 18.283973 -28.519218 4.683987 22.431007 -0.242502 -27.994669 0.000000 0.000000 0.000000 -7.125000 0.000000 0.000000 -9.308305 59.642028 3.344266 0.000000 0.000000 0.000000 -84.709546 18.329738 -53.001158 -13.849242 -22.518700 -2.770153 1.793255 18.783002 -13.660080 0.000000 0.000000 0.000000 7.125000 0.000000 0.000000 19.768081 16.762509 14.101252
12.310437 14.931255 -24.729388 -6.555216 -14.852005 12.493368 0.000000 0.000000 0.000000 9.249769 -1.623636 -32.435484 13.734566 19.031542 71.392091 2.129584 -22.081825 -28.511392 1.588376 -7.948095 -22.557729 0.000000 0.000000 0.000000 -1.084021 9.086780 -54.136004 -9.331059 -17.016122 57.228197 -0.661141 0.544715 -15.187206 -1.719461 8.254009 -23.489142 -0.853197 -2.534038 19.781438 0.463975 -3.553953 -3.851991 2.176032 -1.492137 -15.520985 12.397781 2.354086 4.813572 -13.877118 3.022191 -8.092741 -6.424795 1.694767 -2.737330 0.000000 0.000000 0.000000 83.818806 28.824153 33.365644 17.564993 -27.596537 4.345859 28.297651 5.056498 -29.048394 0.000000 0.000000 0.000000 -7.125000 0.000000 0.000000 -3.047349 62.198789 1.271935 0.000000 0.000000 0.000000 -81.379033 15.584279 -57.357454 -12.705248 -20.853715 -2.347424 -6.479304 15.183430 -10.882314 0.000000 0.000000 0.000000 7.125000 0.000000 0.000000 14.461696 19.201217 9.198450
12.348696 14.921849 -24.866368 -6.484290 -15.074589 12.292157 0.000000 0.000000 0.000000 9.174222 -1.839581 -32.924667 13.899535 19.083278 71.897492 2.314485 -21.287920 -29.215076 1.997668 -8.861121 -25.361825 0.000000 0.000000 0.000000 -1.236431 9.249731 -54.391125 -9.219994 -16.947190 56.847846 -0.613834 0.813288 -14.545087 -1.540778 7.833125 -22.209665 -0.844619 -2.258608 20.034726 0.564591 -3.140222 -1.892952 2.090194 -1.353666 -13.357812 13.071032 2.121833 5.508731 -14.202234 2.865709 -7.497533 -6.642475 1.634926 -2.686031 0.000000 0.000000 0.000000 78.712630 25.219323 35.140877 17.243104 -27.177095 4.197753 32.247891 8.222197 -29.954231 0.000000 0.000000 0.000000 -7.125000 0.000000 0.000000 1.530821 64.244509 -0.717403 0.000000 0.000000 0.000000 -77.476942 12.139763 -59.512925 -12.209105 -20.117423 -2.173680 -14.371376 12.621139 -7.678039 0.000000 0.000000 0.000000 7.125000 0.000000 0.000000 9.051858 22.090208 5.046065
12.396263 14.907548 -24.960627 -6.613086 -15.349255 11.861445 0.000000 0.000000 0.000000 9.276301 -1.882096 -32.887338 14.009408 19.116869 72.233236 2.229654 -21.437961 -28.824823 1.944327 -8.741476 -24.994920 0.000000 0.000000 0.000000 -1.097075 9.441811 -54.022162 -9.039636 -16.833116 56.227052 -0.563460 0.624274 -13.979894 -1.704131 8.220222 -23.385145 -0.733217 -2.115874 19.790864 0.767724 -2.885043 0.043680 2.095054 -1.291626 -11.004567 13.986805 1.999311 5.063227 -14.699284 2.850890 -5.535993 -6.909890 1.608375 -2.019691 0.000000 0.000000 0.000000 74.337788 21.463316 35.021124 17.161570 -27.070277 4.160617 35.979620 10.443225 -30.553445 0.000000 0.000000 0.000000 -7.125000 0.000000 0.000000 6.432911 65.982754 -3.264821 0.000000 0.000000 0.000000 -74.067290 7.777440 -58.281596 -12.186921 -20.084314 -2.166085 -17.474764 10.551521 -6.142044 0.000000 0.000000 0.000000 7.125000 0.000000 0.000000 6.836328 23.551559 3.559618
12.444778 14.916877 -24.985686 -6.370546 -15.706695 11.378052 0.000000 0.000000 0.000000 8.716978 -1.701101 -32.512852 14.040057 19.126156 72.326745 2.254620 -21.307007 -28.913238 1.832451 -8.505449 -24.261588 0.000000 0.000000 0.000000 -1.368795 9.458456 -53.397522 -8.851397 -16.711103 55.574766 -0.547532 0.754945 -13.738137 -1.806920 8.451781 -24.094852 -1.166602 -2.000892 19.158692 0.849716 -2.816553 0.885855 2.352896 -1.267993 -9.686593 13.798839 1.767914 6.360635 -13.681480 2.829779 -4.301214 -6.552152 1.615237 -1.902950 0.000000 0.000000 0.000000 71.392230 17.943134 32.362273 17.155077 -27.061791 4.157650 33.338882 8.830752 -29.553023 0.000000 0.000000 0.000000 -7.125000 0.000000 0.000000 3.124790 64.118123 -1.449395 0.000000 0.000000 0.000000 -71.284983 3.397377 -54.887923 -12.322052 -20.285899 -2.212734 -14.869609 10.907174 -8.404798 0.000000 0.000000 0.000000 7.125000 0.000000 0.000000 8.664410 21.328607 4.978796
